# xmcd CD database file
#
# Track frame offsets:
#	150
#	29190
#	62902
#	88102
#	121887
#	146715
#	168920
#	199110
#	221995
#	248900
#	273302
#	306907
#
# Disc length: 4483 seconds
#
# Revision: 0
# Processed by: cddbd v1.5.1PL0 Copyright (c) Steve Scherf et al.
# Submitted via: CDex 1.51
#
DISCID=bd11810c
DTITLE=Various Artist - Best of Agharta
DYEAR=1995
DGENRE=Jazz
TTITLE0=CooCoo - Karel Ruzicka and George Mraz
TTITLE1=Follow Your Heart - Lubos Andrst and Acoustic Set
TTITLE2=Not Yet - Emil Viklicky Quartet
TTITLE3=Crazy Days - The Four
TTITLE4=Steadily Unsteady - Tutu
TTITLE5=Cry Me a River - Vlasta Pruchova and Swingin' Q
TTITLE6=Magic Holidays - Roman Pokorny Quartet
TTITLE7=Cooking Something up II - Jiri Stivin
TTITLE8=Ginette - Jazz Face
TTITLE9=Childhood Dream - Hot Line
TTITLE10=Line for 'Chet and Gerry' - Naima
TTITLE11=Clementine - Montanaro
EXTD=YEAR: 1995
EXTT0=
EXTT1=
EXTT2=
EXTT3=
EXTT4=
EXTT5=
EXTT6=
EXTT7=
EXTT8=
EXTT9=
EXTT10=
EXTT11=
PLAYORDER=
